# Tiled2Unity generated file. Do not modify by hand.
# Wavefront file for 'Level_01_mesh_0001.obj'

# Vertices (Count = 752)
v -12.8 -9.92 0
v -12.96 -9.92 0
v -12.96 -9.76 0
v -12.8 -9.76 0
v -12.96 -9.92 0
v -13.12 -9.92 0
v -13.12 -9.76 0
v -12.96 -9.76 0
v -11.2 -10.08 0
v -11.36 -10.08 0
v -11.36 -9.92 0
v -11.2 -9.92 0
v -11.36 -10.08 0
v -11.52 -10.08 0
v -11.52 -9.92 0
v -11.36 -9.92 0
v -12.8 -10.08 0
v -12.96 -10.08 0
v -12.96 -9.92 0
v -12.8 -9.92 0
v -12.96 -10.08 0
v -13.12 -10.08 0
v -13.12 -9.92 0
v -12.96 -9.92 0
v -13.12 -10.08 0
v -13.28 -10.08 0
v -13.28 -9.92 0
v -13.12 -9.92 0
v -13.28 -10.08 0
v -13.44 -10.08 0
v -13.44 -9.92 0
v -13.28 -9.92 0
v -11.2 -10.24 0
v -11.36 -10.24 0
v -11.36 -10.08 0
v -11.2 -10.08 0
v -11.36 -10.24 0
v -11.52 -10.24 0
v -11.52 -10.08 0
v -11.36 -10.08 0
v -12.8 -10.24 0
v -12.96 -10.24 0
v -12.96 -10.08 0
v -12.8 -10.08 0
v -12.96 -10.24 0
v -13.12 -10.24 0
v -13.12 -10.08 0
v -12.96 -10.08 0
v -13.12 -10.24 0
v -13.28 -10.24 0
v -13.28 -10.08 0
v -13.12 -10.08 0
v -13.28 -10.24 0
v -13.44 -10.24 0
v -13.44 -10.08 0
v -13.28 -10.08 0
v -13.44 -10.24 0
v -13.6 -10.24 0
v -13.6 -10.08 0
v -13.44 -10.08 0
v -13.6 -10.24 0
v -13.76 -10.24 0
v -13.76 -10.08 0
v -13.6 -10.08 0
v -13.76 -10.24 0
v -13.92 -10.24 0
v -13.92 -10.08 0
v -13.76 -10.08 0
v -13.92 -10.24 0
v -14.08 -10.24 0
v -14.08 -10.08 0
v -13.92 -10.08 0
v -11.2 -10.4 0
v -11.36 -10.4 0
v -11.36 -10.24 0
v -11.2 -10.24 0
v -11.36 -10.4 0
v -11.52 -10.4 0
v -11.52 -10.24 0
v -11.36 -10.24 0
v -12.8 -10.4 0
v -12.96 -10.4 0
v -12.96 -10.24 0
v -12.8 -10.24 0
v -12.96 -10.4 0
v -13.12 -10.4 0
v -13.12 -10.24 0
v -12.96 -10.24 0
v -13.12 -10.4 0
v -13.28 -10.4 0
v -13.28 -10.24 0
v -13.12 -10.24 0
v -13.28 -10.4 0
v -13.44 -10.4 0
v -13.44 -10.24 0
v -13.28 -10.24 0
v -13.44 -10.4 0
v -13.6 -10.4 0
v -13.6 -10.24 0
v -13.44 -10.24 0
v -13.6 -10.4 0
v -13.76 -10.4 0
v -13.76 -10.24 0
v -13.6 -10.24 0
v -13.76 -10.4 0
v -13.92 -10.4 0
v -13.92 -10.24 0
v -13.76 -10.24 0
v -13.92 -10.4 0
v -14.08 -10.4 0
v -14.08 -10.24 0
v -13.92 -10.24 0
v -11.2 -10.56 0
v -11.36 -10.56 0
v -11.36 -10.4 0
v -11.2 -10.4 0
v -11.36 -10.56 0
v -11.52 -10.56 0
v -11.52 -10.4 0
v -11.36 -10.4 0
v -12.8 -10.56 0
v -12.96 -10.56 0
v -12.96 -10.4 0
v -12.8 -10.4 0
v -12.96 -10.56 0
v -13.12 -10.56 0
v -13.12 -10.4 0
v -12.96 -10.4 0
v -13.12 -10.56 0
v -13.28 -10.56 0
v -13.28 -10.4 0
v -13.12 -10.4 0
v -13.28 -10.56 0
v -13.44 -10.56 0
v -13.44 -10.4 0
v -13.28 -10.4 0
v -13.44 -10.56 0
v -13.6 -10.56 0
v -13.6 -10.4 0
v -13.44 -10.4 0
v -13.6 -10.56 0
v -13.76 -10.56 0
v -13.76 -10.4 0
v -13.6 -10.4 0
v -13.76 -10.56 0
v -13.92 -10.56 0
v -13.92 -10.4 0
v -13.76 -10.4 0
v -13.92 -10.56 0
v -14.08 -10.56 0
v -14.08 -10.4 0
v -13.92 -10.4 0
v -11.2 -10.72 0
v -11.36 -10.72 0
v -11.36 -10.56 0
v -11.2 -10.56 0
v -11.36 -10.72 0
v -11.52 -10.72 0
v -11.52 -10.56 0
v -11.36 -10.56 0
v -11.52 -10.72 0
v -11.68 -10.72 0
v -11.68 -10.56 0
v -11.52 -10.56 0
v -11.68 -10.72 0
v -11.84 -10.72 0
v -11.84 -10.56 0
v -11.68 -10.56 0
v -12.48 -10.72 0
v -12.64 -10.72 0
v -12.64 -10.56 0
v -12.48 -10.56 0
v -12.64 -10.72 0
v -12.8 -10.72 0
v -12.8 -10.56 0
v -12.64 -10.56 0
v -12.8 -10.72 0
v -12.96 -10.72 0
v -12.96 -10.56 0
v -12.8 -10.56 0
v -12.96 -10.72 0
v -13.12 -10.72 0
v -13.12 -10.56 0
v -12.96 -10.56 0
v -13.12 -10.72 0
v -13.28 -10.72 0
v -13.28 -10.56 0
v -13.12 -10.56 0
v -13.28 -10.72 0
v -13.44 -10.72 0
v -13.44 -10.56 0
v -13.28 -10.56 0
v -13.44 -10.72 0
v -13.6 -10.72 0
v -13.6 -10.56 0
v -13.44 -10.56 0
v -13.6 -10.72 0
v -13.76 -10.72 0
v -13.76 -10.56 0
v -13.6 -10.56 0
v -13.76 -10.72 0
v -13.92 -10.72 0
v -13.92 -10.56 0
v -13.76 -10.56 0
v -13.92 -10.72 0
v -14.08 -10.72 0
v -14.08 -10.56 0
v -13.92 -10.56 0
v -11.2 -10.88 0
v -11.36 -10.88 0
v -11.36 -10.72 0
v -11.2 -10.72 0
v -11.36 -10.88 0
v -11.52 -10.88 0
v -11.52 -10.72 0
v -11.36 -10.72 0
v -11.52 -10.88 0
v -11.68 -10.88 0
v -11.68 -10.72 0
v -11.52 -10.72 0
v -11.68 -10.88 0
v -11.84 -10.88 0
v -11.84 -10.72 0
v -11.68 -10.72 0
v -11.84 -10.88 0
v -12 -10.88 0
v -12 -10.72 0
v -11.84 -10.72 0
v -12 -10.88 0
v -12.16 -10.88 0
v -12.16 -10.72 0
v -12 -10.72 0
v -12.48 -10.88 0
v -12.64 -10.88 0
v -12.64 -10.72 0
v -12.48 -10.72 0
v -12.64 -10.88 0
v -12.8 -10.88 0
v -12.8 -10.72 0
v -12.64 -10.72 0
v -12.8 -10.88 0
v -12.96 -10.88 0
v -12.96 -10.72 0
v -12.8 -10.72 0
v -12.96 -10.88 0
v -13.12 -10.88 0
v -13.12 -10.72 0
v -12.96 -10.72 0
v -13.12 -10.88 0
v -13.28 -10.88 0
v -13.28 -10.72 0
v -13.12 -10.72 0
v -13.28 -10.88 0
v -13.44 -10.88 0
v -13.44 -10.72 0
v -13.28 -10.72 0
v -13.44 -10.88 0
v -13.6 -10.88 0
v -13.6 -10.72 0
v -13.44 -10.72 0
v -13.6 -10.88 0
v -13.76 -10.88 0
v -13.76 -10.72 0
v -13.6 -10.72 0
v -13.76 -10.88 0
v -13.92 -10.88 0
v -13.92 -10.72 0
v -13.76 -10.72 0
v -13.92 -10.88 0
v -14.08 -10.88 0
v -14.08 -10.72 0
v -13.92 -10.72 0
v -11.2 -11.04 0
v -11.36 -11.04 0
v -11.36 -10.88 0
v -11.2 -10.88 0
v -11.36 -11.04 0
v -11.52 -11.04 0
v -11.52 -10.88 0
v -11.36 -10.88 0
v -11.52 -11.04 0
v -11.68 -11.04 0
v -11.68 -10.88 0
v -11.52 -10.88 0
v -11.68 -11.04 0
v -11.84 -11.04 0
v -11.84 -10.88 0
v -11.68 -10.88 0
v -11.84 -11.04 0
v -12 -11.04 0
v -12 -10.88 0
v -11.84 -10.88 0
v -12 -11.04 0
v -12.16 -11.04 0
v -12.16 -10.88 0
v -12 -10.88 0
v -12.16 -11.04 0
v -12.32 -11.04 0
v -12.32 -10.88 0
v -12.16 -10.88 0
v -12.32 -11.04 0
v -12.48 -11.04 0
v -12.48 -10.88 0
v -12.32 -10.88 0
v -12.48 -11.04 0
v -12.64 -11.04 0
v -12.64 -10.88 0
v -12.48 -10.88 0
v -12.64 -11.04 0
v -12.8 -11.04 0
v -12.8 -10.88 0
v -12.64 -10.88 0
v -12.8 -11.04 0
v -12.96 -11.04 0
v -12.96 -10.88 0
v -12.8 -10.88 0
v -12.96 -11.04 0
v -13.12 -11.04 0
v -13.12 -10.88 0
v -12.96 -10.88 0
v -13.12 -11.04 0
v -13.28 -11.04 0
v -13.28 -10.88 0
v -13.12 -10.88 0
v -13.28 -11.04 0
v -13.44 -11.04 0
v -13.44 -10.88 0
v -13.28 -10.88 0
v -13.44 -11.04 0
v -13.6 -11.04 0
v -13.6 -10.88 0
v -13.44 -10.88 0
v -13.6 -11.04 0
v -13.76 -11.04 0
v -13.76 -10.88 0
v -13.6 -10.88 0
v -13.76 -11.04 0
v -13.92 -11.04 0
v -13.92 -10.88 0
v -13.76 -10.88 0
v -13.92 -11.04 0
v -14.08 -11.04 0
v -14.08 -10.88 0
v -13.92 -10.88 0
v -11.2 -11.2 0
v -11.36 -11.2 0
v -11.36 -11.04 0
v -11.2 -11.04 0
v -11.36 -11.2 0
v -11.52 -11.2 0
v -11.52 -11.04 0
v -11.36 -11.04 0
v -11.52 -11.2 0
v -11.68 -11.2 0
v -11.68 -11.04 0
v -11.52 -11.04 0
v -11.68 -11.2 0
v -11.84 -11.2 0
v -11.84 -11.04 0
v -11.68 -11.04 0
v -11.84 -11.2 0
v -12 -11.2 0
v -12 -11.04 0
v -11.84 -11.04 0
v -12 -11.2 0
v -12.16 -11.2 0
v -12.16 -11.04 0
v -12 -11.04 0
v -12.16 -11.2 0
v -12.32 -11.2 0
v -12.32 -11.04 0
v -12.16 -11.04 0
v -12.32 -11.2 0
v -12.48 -11.2 0
v -12.48 -11.04 0
v -12.32 -11.04 0
v -12.48 -11.2 0
v -12.64 -11.2 0
v -12.64 -11.04 0
v -12.48 -11.04 0
v -12.64 -11.2 0
v -12.8 -11.2 0
v -12.8 -11.04 0
v -12.64 -11.04 0
v -12.8 -11.2 0
v -12.96 -11.2 0
v -12.96 -11.04 0
v -12.8 -11.04 0
v -12.96 -11.2 0
v -13.12 -11.2 0
v -13.12 -11.04 0
v -12.96 -11.04 0
v -13.12 -11.2 0
v -13.28 -11.2 0
v -13.28 -11.04 0
v -13.12 -11.04 0
v -13.28 -11.2 0
v -13.44 -11.2 0
v -13.44 -11.04 0
v -13.28 -11.04 0
v -13.44 -11.2 0
v -13.6 -11.2 0
v -13.6 -11.04 0
v -13.44 -11.04 0
v -13.6 -11.2 0
v -13.76 -11.2 0
v -13.76 -11.04 0
v -13.6 -11.04 0
v -13.76 -11.2 0
v -13.92 -11.2 0
v -13.92 -11.04 0
v -13.76 -11.04 0
v -13.92 -11.2 0
v -14.08 -11.2 0
v -14.08 -11.04 0
v -13.92 -11.04 0
v -11.2 -11.36 0
v -11.36 -11.36 0
v -11.36 -11.2 0
v -11.2 -11.2 0
v -11.36 -11.36 0
v -11.52 -11.36 0
v -11.52 -11.2 0
v -11.36 -11.2 0
v -11.52 -11.36 0
v -11.68 -11.36 0
v -11.68 -11.2 0
v -11.52 -11.2 0
v -11.68 -11.36 0
v -11.84 -11.36 0
v -11.84 -11.2 0
v -11.68 -11.2 0
v -11.84 -11.36 0
v -12 -11.36 0
v -12 -11.2 0
v -11.84 -11.2 0
v -12 -11.36 0
v -12.16 -11.36 0
v -12.16 -11.2 0
v -12 -11.2 0
v -12.16 -11.36 0
v -12.32 -11.36 0
v -12.32 -11.2 0
v -12.16 -11.2 0
v -12.32 -11.36 0
v -12.48 -11.36 0
v -12.48 -11.2 0
v -12.32 -11.2 0
v -12.48 -11.36 0
v -12.64 -11.36 0
v -12.64 -11.2 0
v -12.48 -11.2 0
v -12.64 -11.36 0
v -12.8 -11.36 0
v -12.8 -11.2 0
v -12.64 -11.2 0
v -12.8 -11.36 0
v -12.96 -11.36 0
v -12.96 -11.2 0
v -12.8 -11.2 0
v -12.96 -11.36 0
v -13.12 -11.36 0
v -13.12 -11.2 0
v -12.96 -11.2 0
v -13.12 -11.36 0
v -13.28 -11.36 0
v -13.28 -11.2 0
v -13.12 -11.2 0
v -13.28 -11.36 0
v -13.44 -11.36 0
v -13.44 -11.2 0
v -13.28 -11.2 0
v -13.44 -11.36 0
v -13.6 -11.36 0
v -13.6 -11.2 0
v -13.44 -11.2 0
v -13.6 -11.36 0
v -13.76 -11.36 0
v -13.76 -11.2 0
v -13.6 -11.2 0
v -13.76 -11.36 0
v -13.92 -11.36 0
v -13.92 -11.2 0
v -13.76 -11.2 0
v -13.92 -11.36 0
v -14.08 -11.36 0
v -14.08 -11.2 0
v -13.92 -11.2 0
v -11.2 -11.52 0
v -11.36 -11.52 0
v -11.36 -11.36 0
v -11.2 -11.36 0
v -11.36 -11.52 0
v -11.52 -11.52 0
v -11.52 -11.36 0
v -11.36 -11.36 0
v -11.52 -11.52 0
v -11.68 -11.52 0
v -11.68 -11.36 0
v -11.52 -11.36 0
v -11.68 -11.52 0
v -11.84 -11.52 0
v -11.84 -11.36 0
v -11.68 -11.36 0
v -11.84 -11.52 0
v -12 -11.52 0
v -12 -11.36 0
v -11.84 -11.36 0
v -12 -11.52 0
v -12.16 -11.52 0
v -12.16 -11.36 0
v -12 -11.36 0
v -12.16 -11.52 0
v -12.32 -11.52 0
v -12.32 -11.36 0
v -12.16 -11.36 0
v -12.32 -11.52 0
v -12.48 -11.52 0
v -12.48 -11.36 0
v -12.32 -11.36 0
v -12.48 -11.52 0
v -12.64 -11.52 0
v -12.64 -11.36 0
v -12.48 -11.36 0
v -12.64 -11.52 0
v -12.8 -11.52 0
v -12.8 -11.36 0
v -12.64 -11.36 0
v -12.8 -11.52 0
v -12.96 -11.52 0
v -12.96 -11.36 0
v -12.8 -11.36 0
v -12.96 -11.52 0
v -13.12 -11.52 0
v -13.12 -11.36 0
v -12.96 -11.36 0
v -13.12 -11.52 0
v -13.28 -11.52 0
v -13.28 -11.36 0
v -13.12 -11.36 0
v -13.28 -11.52 0
v -13.44 -11.52 0
v -13.44 -11.36 0
v -13.28 -11.36 0
v -13.44 -11.52 0
v -13.6 -11.52 0
v -13.6 -11.36 0
v -13.44 -11.36 0
v -13.6 -11.52 0
v -13.76 -11.52 0
v -13.76 -11.36 0
v -13.6 -11.36 0
v -13.76 -11.52 0
v -13.92 -11.52 0
v -13.92 -11.36 0
v -13.76 -11.36 0
v -13.92 -11.52 0
v -14.08 -11.52 0
v -14.08 -11.36 0
v -13.92 -11.36 0
v -11.2 -11.68 0
v -11.36 -11.68 0
v -11.36 -11.52 0
v -11.2 -11.52 0
v -11.36 -11.68 0
v -11.52 -11.68 0
v -11.52 -11.52 0
v -11.36 -11.52 0
v -11.52 -11.68 0
v -11.68 -11.68 0
v -11.68 -11.52 0
v -11.52 -11.52 0
v -11.68 -11.68 0
v -11.84 -11.68 0
v -11.84 -11.52 0
v -11.68 -11.52 0
v -11.84 -11.68 0
v -12 -11.68 0
v -12 -11.52 0
v -11.84 -11.52 0
v -12 -11.68 0
v -12.16 -11.68 0
v -12.16 -11.52 0
v -12 -11.52 0
v -12.16 -11.68 0
v -12.32 -11.68 0
v -12.32 -11.52 0
v -12.16 -11.52 0
v -12.32 -11.68 0
v -12.48 -11.68 0
v -12.48 -11.52 0
v -12.32 -11.52 0
v -12.48 -11.68 0
v -12.64 -11.68 0
v -12.64 -11.52 0
v -12.48 -11.52 0
v -12.64 -11.68 0
v -12.8 -11.68 0
v -12.8 -11.52 0
v -12.64 -11.52 0
v -12.8 -11.68 0
v -12.96 -11.68 0
v -12.96 -11.52 0
v -12.8 -11.52 0
v -12.96 -11.68 0
v -13.12 -11.68 0
v -13.12 -11.52 0
v -12.96 -11.52 0
v -13.12 -11.68 0
v -13.28 -11.68 0
v -13.28 -11.52 0
v -13.12 -11.52 0
v -13.28 -11.68 0
v -13.44 -11.68 0
v -13.44 -11.52 0
v -13.28 -11.52 0
v -13.44 -11.68 0
v -13.6 -11.68 0
v -13.6 -11.52 0
v -13.44 -11.52 0
v -13.6 -11.68 0
v -13.76 -11.68 0
v -13.76 -11.52 0
v -13.6 -11.52 0
v -13.76 -11.68 0
v -13.92 -11.68 0
v -13.92 -11.52 0
v -13.76 -11.52 0
v -13.92 -11.68 0
v -14.08 -11.68 0
v -14.08 -11.52 0
v -13.92 -11.52 0
v -11.2 -11.84 0
v -11.36 -11.84 0
v -11.36 -11.68 0
v -11.2 -11.68 0
v -11.36 -11.84 0
v -11.52 -11.84 0
v -11.52 -11.68 0
v -11.36 -11.68 0
v -11.52 -11.84 0
v -11.68 -11.84 0
v -11.68 -11.68 0
v -11.52 -11.68 0
v -11.68 -11.84 0
v -11.84 -11.84 0
v -11.84 -11.68 0
v -11.68 -11.68 0
v -11.84 -11.84 0
v -12 -11.84 0
v -12 -11.68 0
v -11.84 -11.68 0
v -12 -11.84 0
v -12.16 -11.84 0
v -12.16 -11.68 0
v -12 -11.68 0
v -12.16 -11.84 0
v -12.32 -11.84 0
v -12.32 -11.68 0
v -12.16 -11.68 0
v -12.32 -11.84 0
v -12.48 -11.84 0
v -12.48 -11.68 0
v -12.32 -11.68 0
v -12.48 -11.84 0
v -12.64 -11.84 0
v -12.64 -11.68 0
v -12.48 -11.68 0
v -12.64 -11.84 0
v -12.8 -11.84 0
v -12.8 -11.68 0
v -12.64 -11.68 0
v -12.8 -11.84 0
v -12.96 -11.84 0
v -12.96 -11.68 0
v -12.8 -11.68 0
v -12.96 -11.84 0
v -13.12 -11.84 0
v -13.12 -11.68 0
v -12.96 -11.68 0
v -13.12 -11.84 0
v -13.28 -11.84 0
v -13.28 -11.68 0
v -13.12 -11.68 0
v -13.28 -11.84 0
v -13.44 -11.84 0
v -13.44 -11.68 0
v -13.28 -11.68 0
v -13.44 -11.84 0
v -13.6 -11.84 0
v -13.6 -11.68 0
v -13.44 -11.68 0
v -13.6 -11.84 0
v -13.76 -11.84 0
v -13.76 -11.68 0
v -13.6 -11.68 0
v -13.76 -11.84 0
v -13.92 -11.84 0
v -13.92 -11.68 0
v -13.76 -11.68 0
v -13.92 -11.84 0
v -14.08 -11.84 0
v -14.08 -11.68 0
v -13.92 -11.68 0
v -11.52 -12 0
v -11.68 -12 0
v -11.68 -11.84 0
v -11.52 -11.84 0
v -11.68 -12 0
v -11.84 -12 0
v -11.84 -11.84 0
v -11.68 -11.84 0
v -11.84 -12 0
v -12 -12 0
v -12 -11.84 0
v -11.84 -11.84 0
v -12 -12 0
v -12.16 -12 0
v -12.16 -11.84 0
v -12 -11.84 0
v -12.48 -12 0
v -12.64 -12 0
v -12.64 -11.84 0
v -12.48 -11.84 0
v -12.64 -12 0
v -12.8 -12 0
v -12.8 -11.84 0
v -12.64 -11.84 0
v -12.8 -12 0
v -12.96 -12 0
v -12.96 -11.84 0
v -12.8 -11.84 0
v -12.96 -12 0
v -13.12 -12 0
v -13.12 -11.84 0
v -12.96 -11.84 0
v -13.44 -12 0
v -13.6 -12 0
v -13.6 -11.84 0
v -13.44 -11.84 0
v -13.6 -12 0
v -13.76 -12 0
v -13.76 -11.84 0
v -13.6 -11.84 0
v -13.76 -12 0
v -13.92 -12 0
v -13.92 -11.84 0
v -13.76 -11.84 0
v -13.92 -12 0
v -14.08 -12 0
v -14.08 -11.84 0
v -13.92 -11.84 0

# Texture cooridinates (Count = 12)
vt 0.56 0.2608696
vt 0.6 0.2608696
vt 0.6 0.3043478
vt 0.56 0.3043478
vt 0.64 0.2608696
vt 0.64 0.3043478
vt 0.56 0.2173913
vt 0.6 0.2173913
vt 0.64 0.2173913
vt 0.56 0.173913
vt 0.6 0.173913
vt 0.64 0.173913

# Normal
vn 0 0 -1

# Mesh description
g Level_01_mesh_0001

# Faces
f 1/1/1 2/2/1 3/3/1 4/4/1
f 5/2/1 6/5/1 7/6/1 8/3/1
f 9/1/1 10/2/1 11/3/1 12/4/1
f 13/2/1 14/5/1 15/6/1 16/3/1
f 17/7/1 18/8/1 19/2/1 20/1/1
f 21/8/1 22/9/1 23/5/1 24/2/1
f 25/1/1 26/2/1 27/3/1 28/4/1
f 29/2/1 30/5/1 31/6/1 32/3/1
f 33/7/1 34/8/1 35/2/1 36/1/1
f 37/8/1 38/9/1 39/5/1 40/2/1
f 41/10/1 42/11/1 43/8/1 44/7/1
f 45/11/1 46/12/1 47/9/1 48/8/1
f 49/7/1 50/8/1 51/2/1 52/1/1
f 53/8/1 54/9/1 55/5/1 56/2/1
f 57/1/1 58/2/1 59/3/1 60/4/1
f 61/2/1 62/5/1 63/6/1 64/3/1
f 65/10/1 66/11/1 67/8/1 68/7/1
f 69/11/1 70/12/1 71/9/1 72/8/1
f 73/10/1 74/11/1 75/8/1 76/7/1
f 77/11/1 78/12/1 79/9/1 80/8/1
f 81/1/1 82/2/1 83/3/1 84/4/1
f 85/2/1 86/5/1 87/6/1 88/3/1
f 89/10/1 90/11/1 91/8/1 92/7/1
f 93/11/1 94/12/1 95/9/1 96/8/1
f 97/7/1 98/8/1 99/2/1 100/1/1
f 101/8/1 102/9/1 103/5/1 104/2/1
f 105/1/1 106/2/1 107/3/1 108/4/1
f 109/2/1 110/5/1 111/6/1 112/3/1
f 113/1/1 114/2/1 115/3/1 116/4/1
f 117/2/1 118/5/1 119/6/1 120/3/1
f 121/7/1 122/8/1 123/2/1 124/1/1
f 125/8/1 126/9/1 127/5/1 128/2/1
f 129/1/1 130/2/1 131/3/1 132/4/1
f 133/2/1 134/5/1 135/6/1 136/3/1
f 137/10/1 138/11/1 139/8/1 140/7/1
f 141/11/1 142/12/1 143/9/1 144/8/1
f 145/7/1 146/8/1 147/2/1 148/1/1
f 149/8/1 150/9/1 151/5/1 152/2/1
f 153/7/1 154/8/1 155/2/1 156/1/1
f 157/8/1 158/9/1 159/5/1 160/2/1
f 161/1/1 162/2/1 163/3/1 164/4/1
f 165/2/1 166/5/1 167/6/1 168/3/1
f 169/1/1 170/2/1 171/3/1 172/4/1
f 173/2/1 174/5/1 175/6/1 176/3/1
f 177/10/1 178/11/1 179/8/1 180/7/1
f 181/11/1 182/12/1 183/9/1 184/8/1
f 185/7/1 186/8/1 187/2/1 188/1/1
f 189/8/1 190/9/1 191/5/1 192/2/1
f 193/1/1 194/2/1 195/3/1 196/4/1
f 197/2/1 198/5/1 199/6/1 200/3/1
f 201/10/1 202/11/1 203/8/1 204/7/1
f 205/11/1 206/12/1 207/9/1 208/8/1
f 209/10/1 210/11/1 211/8/1 212/7/1
f 213/11/1 214/12/1 215/9/1 216/8/1
f 217/7/1 218/8/1 219/2/1 220/1/1
f 221/8/1 222/9/1 223/5/1 224/2/1
f 225/1/1 226/2/1 227/3/1 228/4/1
f 229/2/1 230/5/1 231/6/1 232/3/1
f 233/7/1 234/8/1 235/2/1 236/1/1
f 237/8/1 238/9/1 239/5/1 240/2/1
f 241/1/1 242/2/1 243/3/1 244/4/1
f 245/2/1 246/5/1 247/6/1 248/3/1
f 249/10/1 250/11/1 251/8/1 252/7/1
f 253/11/1 254/12/1 255/9/1 256/8/1
f 257/7/1 258/8/1 259/2/1 260/1/1
f 261/8/1 262/9/1 263/5/1 264/2/1
f 265/1/1 266/2/1 267/3/1 268/4/1
f 269/2/1 270/5/1 271/6/1 272/3/1
f 273/1/1 274/2/1 275/3/1 276/4/1
f 277/2/1 278/5/1 279/6/1 280/3/1
f 281/10/1 282/11/1 283/8/1 284/7/1
f 285/11/1 286/12/1 287/9/1 288/8/1
f 289/7/1 290/8/1 291/2/1 292/1/1
f 293/8/1 294/9/1 295/5/1 296/2/1
f 297/1/1 298/2/1 299/3/1 300/4/1
f 301/2/1 302/5/1 303/6/1 304/3/1
f 305/10/1 306/11/1 307/8/1 308/7/1
f 309/11/1 310/12/1 311/9/1 312/8/1
f 313/7/1 314/8/1 315/2/1 316/1/1
f 317/8/1 318/9/1 319/5/1 320/2/1
f 321/1/1 322/2/1 323/3/1 324/4/1
f 325/2/1 326/5/1 327/6/1 328/3/1
f 329/10/1 330/11/1 331/8/1 332/7/1
f 333/11/1 334/12/1 335/9/1 336/8/1
f 337/7/1 338/8/1 339/2/1 340/1/1
f 341/8/1 342/9/1 343/5/1 344/2/1
f 345/7/1 346/8/1 347/2/1 348/1/1
f 349/8/1 350/9/1 351/5/1 352/2/1
f 353/1/1 354/2/1 355/3/1 356/4/1
f 357/2/1 358/5/1 359/6/1 360/3/1
f 361/10/1 362/11/1 363/8/1 364/7/1
f 365/11/1 366/12/1 367/9/1 368/8/1
f 369/7/1 370/8/1 371/2/1 372/1/1
f 373/8/1 374/9/1 375/5/1 376/2/1
f 377/1/1 378/2/1 379/3/1 380/4/1
f 381/2/1 382/5/1 383/6/1 384/3/1
f 385/10/1 386/11/1 387/8/1 388/7/1
f 389/11/1 390/12/1 391/9/1 392/8/1
f 393/7/1 394/8/1 395/2/1 396/1/1
f 397/8/1 398/9/1 399/5/1 400/2/1
f 401/1/1 402/2/1 403/3/1 404/4/1
f 405/2/1 406/5/1 407/6/1 408/3/1
f 409/10/1 410/11/1 411/8/1 412/7/1
f 413/11/1 414/12/1 415/9/1 416/8/1
f 417/10/1 418/11/1 419/8/1 420/7/1
f 421/11/1 422/12/1 423/9/1 424/8/1
f 425/7/1 426/8/1 427/2/1 428/1/1
f 429/8/1 430/9/1 431/5/1 432/2/1
f 433/1/1 434/2/1 435/3/1 436/4/1
f 437/2/1 438/5/1 439/6/1 440/3/1
f 441/10/1 442/11/1 443/8/1 444/7/1
f 445/11/1 446/12/1 447/9/1 448/8/1
f 449/7/1 450/8/1 451/2/1 452/1/1
f 453/8/1 454/9/1 455/5/1 456/2/1
f 457/1/1 458/2/1 459/3/1 460/4/1
f 461/2/1 462/5/1 463/6/1 464/3/1
f 465/10/1 466/11/1 467/8/1 468/7/1
f 469/11/1 470/12/1 471/9/1 472/8/1
f 473/7/1 474/8/1 475/2/1 476/1/1
f 477/8/1 478/9/1 479/5/1 480/2/1
f 481/1/1 482/2/1 483/3/1 484/4/1
f 485/2/1 486/5/1 487/6/1 488/3/1
f 489/1/1 490/2/1 491/3/1 492/4/1
f 493/2/1 494/5/1 495/6/1 496/3/1
f 497/10/1 498/11/1 499/8/1 500/7/1
f 501/11/1 502/12/1 503/9/1 504/8/1
f 505/7/1 506/8/1 507/2/1 508/1/1
f 509/8/1 510/9/1 511/5/1 512/2/1
f 513/1/1 514/2/1 515/3/1 516/4/1
f 517/2/1 518/5/1 519/6/1 520/3/1
f 521/10/1 522/11/1 523/8/1 524/7/1
f 525/11/1 526/12/1 527/9/1 528/8/1
f 529/7/1 530/8/1 531/2/1 532/1/1
f 533/8/1 534/9/1 535/5/1 536/2/1
f 537/1/1 538/2/1 539/3/1 540/4/1
f 541/2/1 542/5/1 543/6/1 544/3/1
f 545/10/1 546/11/1 547/8/1 548/7/1
f 549/11/1 550/12/1 551/9/1 552/8/1
f 553/7/1 554/8/1 555/2/1 556/1/1
f 557/8/1 558/9/1 559/5/1 560/2/1
f 561/7/1 562/8/1 563/2/1 564/1/1
f 565/8/1 566/9/1 567/5/1 568/2/1
f 569/1/1 570/2/1 571/3/1 572/4/1
f 573/2/1 574/5/1 575/6/1 576/3/1
f 577/10/1 578/11/1 579/8/1 580/7/1
f 581/11/1 582/12/1 583/9/1 584/8/1
f 585/7/1 586/8/1 587/2/1 588/1/1
f 589/8/1 590/9/1 591/5/1 592/2/1
f 593/1/1 594/2/1 595/3/1 596/4/1
f 597/2/1 598/5/1 599/6/1 600/3/1
f 601/10/1 602/11/1 603/8/1 604/7/1
f 605/11/1 606/12/1 607/9/1 608/8/1
f 609/7/1 610/8/1 611/2/1 612/1/1
f 613/8/1 614/9/1 615/5/1 616/2/1
f 617/1/1 618/2/1 619/3/1 620/4/1
f 621/2/1 622/5/1 623/6/1 624/3/1
f 625/10/1 626/11/1 627/8/1 628/7/1
f 629/11/1 630/12/1 631/9/1 632/8/1
f 633/10/1 634/11/1 635/8/1 636/7/1
f 637/11/1 638/12/1 639/9/1 640/8/1
f 641/7/1 642/8/1 643/2/1 644/1/1
f 645/8/1 646/9/1 647/5/1 648/2/1
f 649/1/1 650/2/1 651/3/1 652/4/1
f 653/2/1 654/5/1 655/6/1 656/3/1
f 657/10/1 658/11/1 659/8/1 660/7/1
f 661/11/1 662/12/1 663/9/1 664/8/1
f 665/7/1 666/8/1 667/2/1 668/1/1
f 669/8/1 670/9/1 671/5/1 672/2/1
f 673/1/1 674/2/1 675/3/1 676/4/1
f 677/2/1 678/5/1 679/6/1 680/3/1
f 681/10/1 682/11/1 683/8/1 684/7/1
f 685/11/1 686/12/1 687/9/1 688/8/1
f 689/7/1 690/8/1 691/2/1 692/1/1
f 693/8/1 694/9/1 695/5/1 696/2/1
f 697/1/1 698/2/1 699/3/1 700/4/1
f 701/2/1 702/5/1 703/6/1 704/3/1
f 705/10/1 706/11/1 707/8/1 708/7/1
f 709/11/1 710/12/1 711/9/1 712/8/1
f 713/7/1 714/8/1 715/2/1 716/1/1
f 717/8/1 718/9/1 719/5/1 720/2/1
f 721/10/1 722/11/1 723/8/1 724/7/1
f 725/11/1 726/12/1 727/9/1 728/8/1
f 729/7/1 730/8/1 731/2/1 732/1/1
f 733/8/1 734/9/1 735/5/1 736/2/1
f 737/10/1 738/11/1 739/8/1 740/7/1
f 741/11/1 742/12/1 743/9/1 744/8/1
f 745/7/1 746/8/1 747/2/1 748/1/1
f 749/8/1 750/9/1 751/5/1 752/2/1

